<svg width="512" height="336" viewBox="0 0 512 336" fill="none" xmlns="http://www.w3.org/2000/svg">
<mask id="mask0_1043_69130" style="mask-type:alpha" maskUnits="userSpaceOnUse" x="88" y="0" width="336" height="336">
<rect width="336" height="336" transform="translate(88)" fill="url(#paint0_radial_1043_69130)"/>
</mask>
<g mask="url(#mask0_1043_69130)">
<g clip-path="url(#clip0_1043_69130)">
<g clip-path="url(#clip1_1043_69130)">
<line x1="88.5" x2="88.5" y2="336" stroke="#E2E4E9"/>
<line x1="112.5" x2="112.5" y2="336" stroke="#E2E4E9"/>
<line x1="136.5" x2="136.5" y2="336" stroke="#E2E4E9"/>
<line x1="160.5" x2="160.5" y2="336" stroke="#E2E4E9"/>
<line x1="184.5" x2="184.5" y2="336" stroke="#E2E4E9"/>
<line x1="208.5" x2="208.5" y2="336" stroke="#E2E4E9"/>
<line x1="232.5" x2="232.5" y2="336" stroke="#E2E4E9"/>
<line x1="256.5" x2="256.5" y2="336" stroke="#E2E4E9"/>
<line x1="280.5" x2="280.5" y2="336" stroke="#E2E4E9"/>
<line x1="304.5" x2="304.5" y2="336" stroke="#E2E4E9"/>
<line x1="328.5" x2="328.5" y2="336" stroke="#E2E4E9"/>
<line x1="352.5" x2="352.5" y2="336" stroke="#E2E4E9"/>
<line x1="376.5" x2="376.5" y2="336" stroke="#E2E4E9"/>
<line x1="400.5" x2="400.5" y2="336" stroke="#E2E4E9"/>
</g>
<rect x="88.5" y="0.5" width="335" height="335" stroke="#E2E4E9"/>
<g clip-path="url(#clip2_1043_69130)">
<line x1="88" y1="23.5" x2="424" y2="23.5" stroke="#E2E4E9"/>
<line x1="88" y1="47.5" x2="424" y2="47.5" stroke="#E2E4E9"/>
<line x1="88" y1="71.5" x2="424" y2="71.5" stroke="#E2E4E9"/>
<line x1="88" y1="95.5" x2="424" y2="95.5" stroke="#E2E4E9"/>
<line x1="88" y1="119.5" x2="424" y2="119.5" stroke="#E2E4E9"/>
<line x1="88" y1="143.5" x2="424" y2="143.5" stroke="#E2E4E9"/>
<line x1="88" y1="167.5" x2="424" y2="167.5" stroke="#E2E4E9"/>
<line x1="88" y1="191.5" x2="424" y2="191.5" stroke="#E2E4E9"/>
<line x1="88" y1="215.5" x2="424" y2="215.5" stroke="#E2E4E9"/>
<line x1="88" y1="239.5" x2="424" y2="239.5" stroke="#E2E4E9"/>
<line x1="88" y1="263.5" x2="424" y2="263.5" stroke="#E2E4E9"/>
<line x1="88" y1="287.5" x2="424" y2="287.5" stroke="#E2E4E9"/>
<line x1="88" y1="311.5" x2="424" y2="311.5" stroke="#E2E4E9"/>
<line x1="88" y1="335.5" x2="424" y2="335.5" stroke="#E2E4E9"/>
</g>
<rect x="88.5" y="0.5" width="335" height="335" stroke="#E2E4E9"/>
</g>
</g>
<circle cx="256" cy="173" r="52" fill="#E2E4E9"/>
<g filter="url(#filter0_dd_1043_69130)">
<path d="M257.6 137C246.827 137 237.298 142.323 231.499 150.483C229.605 150.036 227.63 149.8 225.6 149.8C211.462 149.8 200 161.262 200 175.4C200 189.538 211.462 201 225.6 201L289.6 201C301.971 201 312 190.971 312 178.6C312 166.229 301.971 156.2 289.6 156.2C288.721 156.2 287.854 156.251 287.002 156.349C282.098 144.968 270.78 137 257.6 137Z" fill="white"/>
<ellipse cx="225.6" cy="175.397" rx="25.6" ry="25.6" fill="url(#paint1_linear_1043_69130)"/>
<circle cx="257.602" cy="169" r="32" fill="url(#paint2_linear_1043_69130)"/>
<ellipse cx="289.603" cy="178.603" rx="22.4" ry="22.4" fill="url(#paint3_linear_1043_69130)"/>
</g>
<circle cx="201" cy="140" r="5" fill="#F6F8FA"/>
<circle cx="198" cy="230" r="7" fill="#F6F8FA"/>
<circle cx="325" cy="156" r="7" fill="#F6F8FA"/>
<circle cx="314" cy="129" r="4" fill="#F6F8FA"/>
<foreignObject x="224" y="175" width="64" height="64"><div xmlns="http://www.w3.org/1999/xhtml" style="backdrop-filter:blur(4px);clip-path:url(#bgblur_3_1043_69130_clip_path);height:100%;width:100%"></div></foreignObject><g data-figma-bg-blur-radius="8">
<rect x="232" y="183" width="48" height="48" rx="24" fill="#375DFB"/>
<path d="M265 216L261.5 212.5M264 206.5C264 211.194 260.194 215 255.5 215C250.806 215 247 211.194 247 206.5C247 201.806 250.806 198 255.5 198C260.194 198 264 201.806 264 206.5Z" stroke="white" stroke-width="2" stroke-linecap="round" stroke-linejoin="round"/>
</g>
<defs>
<filter id="filter0_dd_1043_69130" x="180" y="137" width="152" height="104" filterUnits="userSpaceOnUse" color-interpolation-filters="sRGB">
<feFlood flood-opacity="0" result="BackgroundImageFix"/>
<feColorMatrix in="SourceAlpha" type="matrix" values="0 0 0 0 0 0 0 0 0 0 0 0 0 0 0 0 0 0 127 0" result="hardAlpha"/>
<feMorphology radius="4" operator="erode" in="SourceAlpha" result="effect1_dropShadow_1043_69130"/>
<feOffset dy="8"/>
<feGaussianBlur stdDeviation="4"/>
<feComposite in2="hardAlpha" operator="out"/>
<feColorMatrix type="matrix" values="0 0 0 0 0.0627451 0 0 0 0 0.0941176 0 0 0 0 0.156863 0 0 0 0.03 0"/>
<feBlend mode="normal" in2="BackgroundImageFix" result="effect1_dropShadow_1043_69130"/>
<feColorMatrix in="SourceAlpha" type="matrix" values="0 0 0 0 0 0 0 0 0 0 0 0 0 0 0 0 0 0 127 0" result="hardAlpha"/>
<feMorphology radius="4" operator="erode" in="SourceAlpha" result="effect2_dropShadow_1043_69130"/>
<feOffset dy="20"/>
<feGaussianBlur stdDeviation="12"/>
<feComposite in2="hardAlpha" operator="out"/>
<feColorMatrix type="matrix" values="0 0 0 0 0.0627451 0 0 0 0 0.0941176 0 0 0 0 0.156863 0 0 0 0.08 0"/>
<feBlend mode="normal" in2="effect1_dropShadow_1043_69130" result="effect2_dropShadow_1043_69130"/>
<feBlend mode="normal" in="SourceGraphic" in2="effect2_dropShadow_1043_69130" result="shape"/>
</filter>
<clipPath id="bgblur_3_1043_69130_clip_path" transform="translate(-224 -175)"><rect x="232" y="183" width="48" height="48" rx="24"/>
</clipPath><radialGradient id="paint0_radial_1043_69130" cx="0" cy="0" r="1" gradientUnits="userSpaceOnUse" gradientTransform="translate(168 168) rotate(90) scale(168 168)">
<stop/>
<stop offset="1" stop-opacity="0"/>
</radialGradient>
<linearGradient id="paint1_linear_1043_69130" x1="205.943" y1="158.483" x2="251.2" y2="200.997" gradientUnits="userSpaceOnUse">
<stop stop-color="#D0D5DD"/>
<stop offset="0.350715" stop-color="white" stop-opacity="0"/>
</linearGradient>
<linearGradient id="paint2_linear_1043_69130" x1="233.03" y1="147.857" x2="289.602" y2="201" gradientUnits="userSpaceOnUse">
<stop stop-color="#D0D5DD"/>
<stop offset="0.350715" stop-color="white" stop-opacity="0"/>
</linearGradient>
<linearGradient id="paint3_linear_1043_69130" x1="272.403" y1="163.803" x2="312.003" y2="201.003" gradientUnits="userSpaceOnUse">
<stop stop-color="#D0D5DD"/>
<stop offset="0.350715" stop-color="white" stop-opacity="0"/>
</linearGradient>
<clipPath id="clip0_1043_69130">
<rect width="336" height="336" fill="white" transform="translate(88)"/>
</clipPath>
<clipPath id="clip1_1043_69130">
<rect x="88" width="336" height="336" fill="white"/>
</clipPath>
<clipPath id="clip2_1043_69130">
<rect x="88" width="336" height="336" fill="white"/>
</clipPath>
</defs>
</svg>
